<svg width="28" height="28" viewBox="0 0 28 28" fill="none" xmlns="http://www.w3.org/2000/svg">
    <g id="Logo" clip-path="url(#clip0_17123_4878)">
        <path id="Shape"
              d="M8.79346 11.3827C8.82769 14.4941 9.68725 18.1945 12.4865 19.9472C14.089 20.9505 16.1124 21.084 17.952 20.6721L17.9723 20.6516C18.3792 18.7898 18.2474 16.7414 17.256 15.1203C15.5235 12.2873 11.8672 11.4167 8.79346 11.3827Z"
              fill="#7ED321"/>
        <path id="Oval (Stroke)" fill-rule="evenodd" clip-rule="evenodd"
              d="M10.485 4.46477C10.6087 4.81573 10.4279 5.20174 10.0811 5.32695C9.91105 5.38836 9.74295 5.45395 9.57693 5.52363C9.24911 5.6612 8.9294 5.81465 8.61874 5.98305C8.30624 6.15244 8.00289 6.33695 7.70965 6.53563C7.41525 6.73508 7.13105 6.94881 6.85801 7.17584C6.58443 7.40331 6.32208 7.64413 6.07192 7.8973C5.82177 8.15047 5.58382 8.41599 5.35905 8.69285C5.13473 8.96918 4.92354 9.25681 4.72646 9.55475C4.53015 9.85153 4.34783 10.1585 4.18046 10.4748C4.01407 10.7892 3.86244 11.1128 3.72651 11.4445C3.59173 11.7735 3.47238 12.1105 3.36935 12.4547C3.26752 12.7949 3.18163 13.1421 3.11255 13.4955C3.04449 13.8437 2.99274 14.1979 2.95818 14.5574C2.92252 14.9283 2.59653 15.1997 2.23007 15.1636C1.86362 15.1275 1.59545 14.7976 1.63111 14.4267C1.66992 14.0231 1.72805 13.625 1.80457 13.2336C1.88221 12.8364 1.97878 12.446 2.09328 12.0634C2.20914 11.6764 2.34334 11.2975 2.49486 10.9277C2.64769 10.5547 2.81812 10.191 3.0051 9.83769C3.19318 9.4823 3.398 9.13741 3.61848 8.80408C3.83983 8.46946 4.07698 8.14648 4.32883 7.83624C4.58118 7.5254 4.8483 7.22733 5.12911 6.94313C5.40993 6.65893 5.70445 6.38859 6.01159 6.13321C6.31814 5.87832 6.63727 5.63832 6.96791 5.4143C7.29727 5.19116 7.63806 4.98387 7.98921 4.79352C8.33832 4.60429 8.69767 4.43181 9.06621 4.27714C9.25286 4.19882 9.44186 4.12506 9.63308 4.05602C9.97986 3.93081 10.3613 4.11381 10.485 4.46477ZM19.5333 5.59963C19.7381 5.28998 20.1522 5.20701 20.4582 5.4143C20.7888 5.63832 21.108 5.87832 21.4145 6.13321C21.7216 6.38859 22.0162 6.65893 22.297 6.94313C22.5778 7.22733 22.8449 7.5254 23.0973 7.83624C23.3491 8.14648 23.5863 8.46946 23.8076 8.80408C24.0281 9.13741 24.2329 9.4823 24.421 9.83769C24.608 10.191 24.7784 10.5547 24.9312 10.9277C25.0827 11.2975 25.217 11.6764 25.3328 12.0634C25.4473 12.446 25.5439 12.8364 25.6215 13.2336C25.698 13.625 25.7562 14.0231 25.795 14.4267C25.8331 14.8229 25.8526 15.2245 25.8526 15.6305C25.8526 16.0365 25.8331 16.438 25.795 16.8342C25.7754 17.0373 25.751 17.239 25.7218 17.4392C25.6681 17.8078 25.3292 18.0625 24.965 18.0081C24.6007 17.9537 24.349 17.6107 24.4028 17.2421C24.4288 17.064 24.4505 16.8844 24.4679 16.7035C24.5018 16.3507 24.5192 15.9927 24.5192 15.6305C24.5192 15.2682 24.5018 14.9103 24.4679 14.5574C24.4333 14.1979 24.3816 13.8437 24.3135 13.4955C24.2445 13.1421 24.1586 12.7949 24.0567 12.4547C23.9537 12.1105 23.8344 11.7735 23.6996 11.4445C23.5636 11.1128 23.412 10.7892 23.2456 10.4748C23.0783 10.1585 22.8959 9.85153 22.6996 9.55475C22.5025 9.25681 22.2914 8.96918 22.067 8.69286C21.8423 8.41599 21.6043 8.15047 21.3542 7.8973C21.104 7.64413 20.8417 7.40331 20.5681 7.17584C20.295 6.94881 20.0108 6.73508 19.7164 6.53563C19.4105 6.32833 19.3285 5.90927 19.5333 5.59963ZM5.50514 23.7709C5.7528 23.4952 6.17443 23.4748 6.44688 23.7255C6.5809 23.8488 6.71798 23.9687 6.85801 24.0851C7.13105 24.3121 7.41525 24.5259 7.70965 24.7253C8.00289 24.924 8.30624 25.1085 8.61874 25.2779C8.9294 25.4463 9.24911 25.5998 9.57693 25.7373C9.90195 25.8737 10.235 25.9945 10.5751 26.0988C10.9112 26.2019 11.2543 26.2888 11.6034 26.3587C11.9475 26.4276 12.2976 26.4799 12.6527 26.5149C13.0014 26.5493 13.3551 26.5668 13.713 26.5668C14.071 26.5668 14.4247 26.5493 14.7733 26.5149C15.1285 26.4799 15.4786 26.4276 15.8227 26.3587C16.1718 26.2888 16.5149 26.2019 16.851 26.0988C17.1911 25.9945 17.5241 25.8737 17.8492 25.7373C18.177 25.5998 18.4967 25.4463 18.8074 25.2779C19.1319 25.102 19.536 25.2256 19.7098 25.5541C19.8836 25.8826 19.7614 26.2915 19.4369 26.4674C19.0878 26.6567 18.7284 26.8292 18.3599 26.9838C17.9945 27.1372 17.62 27.273 17.2376 27.3902C16.8596 27.5061 16.4739 27.6038 16.0814 27.6824C15.6946 27.7599 15.3013 27.8187 14.9025 27.858C14.511 27.8965 14.1142 27.9162 13.713 27.9162C13.3119 27.9162 12.9151 27.8965 12.5236 27.858C12.1248 27.8187 11.7315 27.7599 11.3447 27.6824C10.9522 27.6038 10.5664 27.5061 10.1885 27.3902C9.80606 27.273 9.43162 27.1372 9.06621 26.9838C8.69767 26.8292 8.33832 26.6567 7.98921 26.4674C7.63806 26.2771 7.29727 26.0698 6.96791 25.8467C6.63727 25.6226 6.31813 25.3826 6.01159 25.1278C5.85438 24.997 5.70048 24.8624 5.55003 24.724C5.27758 24.4734 5.25748 24.0466 5.50514 23.7709Z"
              fill="#191919"/>
        <g id="suns">
            <path id="up" fill-rule="evenodd" clip-rule="evenodd"
                  d="M13.7133 1.19678C15.3438 1.19678 16.6249 2.5326 16.6249 4.14344C16.6249 5.79357 15.305 7.0901 13.7133 7.0901C12.0829 7.0901 10.8018 5.75428 10.8018 4.14344C10.8018 2.5326 12.0829 1.19678 13.7133 1.19678Z"
                  fill="#F8E71C"/>
        </g>
        <g id="empty-circles">
            <path id="left-y (Stroke)" fill-rule="evenodd" clip-rule="evenodd"
                  d="M4.16378 17.9437C2.56494 17.9437 1.30767 19.2522 1.30767 20.8343C1.30767 22.4163 2.56494 23.7248 4.16378 23.7248C5.72701 23.7248 7.01989 22.4524 7.01989 20.8343C7.01989 19.2522 5.76262 17.9437 4.16378 17.9437ZM0.0854492 20.8343C0.0854492 18.5798 1.87933 16.7068 4.16378 16.7068C6.44823 16.7068 8.24212 18.5798 8.24212 20.8343C8.24212 23.1462 6.39138 24.9617 4.16378 24.9617C1.87933 24.9617 0.0854492 23.0887 0.0854492 20.8343Z"
                  fill="#191919"/>
            <path id="right-&#209;&#131; (Stroke)" fill-rule="evenodd" clip-rule="evenodd"
                  d="M23.843 17.9437C22.2441 17.9437 20.9869 19.2522 20.9869 20.8343C20.9869 22.4163 22.2441 23.7248 23.843 23.7248C25.4062 23.7248 26.6991 22.4524 26.6991 20.8343C26.6991 19.2522 25.4418 17.9437 23.843 17.9437ZM19.7646 20.8343C19.7646 18.5798 21.5585 16.7068 23.843 16.7068C26.1274 16.7068 27.9213 18.5798 27.9213 20.8343C27.9213 23.1462 26.0706 24.9617 23.843 24.9617C21.5585 24.9617 19.7646 23.0887 19.7646 20.8343Z"
                  fill="#191919"/>
            <path id="up-&#209;&#131; (Stroke)" fill-rule="evenodd" clip-rule="evenodd"
                  d="M13.7131 1.24134C12.1143 1.24134 10.857 2.5498 10.857 4.13186C10.857 5.71393 12.1143 7.02239 13.7131 7.02239C15.2763 7.02239 16.5692 5.74997 16.5692 4.13186C16.5692 2.5498 15.3119 1.24134 13.7131 1.24134ZM9.63477 4.13186C9.63477 1.87743 11.4286 0.00439453 13.7131 0.00439453C15.9975 0.00439453 17.7914 1.87743 17.7914 4.13186C17.7914 6.44384 15.9407 8.25933 13.7131 8.25933C11.4286 8.25933 9.63477 6.3863 9.63477 4.13186Z"
                  fill="#191919"/>
        </g>
    </g>
    <defs>
        <clipPath id="clip0_17123_4878">
            <rect width="28" height="28" fill="white"/>
        </clipPath>
    </defs>
</svg>
